{
  "asset": {
    "generator": "Khronos Blender glTF 2.0 I/O",
    "version": "2.0"
  },
  "scene": 0,
  "scenes": [
    {
      "name": "Scene",
      "nodes": [
        0
      ]
    }
  ],
  "nodes": [
    {
      "mesh": 0,
      "name": "Uranus",
      "rotation": [
        0.7071068286895752,
        0,
        0,
        0.7071067094802856
      ]
    }
  ],
  "materials": [
    {
      "name": "Default OBJ.001",
      "pbrMetallicRoughness": {
        "baseColorTexture": {
          "index": 0,
          "texCoord": 0
        },
        "metallicFactor": 0,
        "roughnessFactor": 0.8999999761581421
      }
    }
  ],
  "meshes": [
    {
      "name": "cylindrically_mapped_sphere:Mesh.000",
      "primitives": [
        {
          "attributes": {
            "POSITION": 0,
            "NORMAL": 1,
            "TEXCOORD_0": 2
          },
          "indices": 3,
          "material": 0
        }
      ]
    }
  ],
  "textures": [
    {
      "source": 0
    }
  ],
  "images": [
    {
      "name": "Image_0",
      "uri": "Uranus_img0.png"
    }
  ],
  "accessors": [
    {
      "bufferView": 0,
      "componentType": 5126,
      "count": 3256,
      "max": [
        500.0039978027344,
        499.9994812011719,
        488.5364990234375
      ],
      "min": [
        -499.9960021972656,
        -500.0005187988281,
        -488.5364990234375
      ],
      "type": "VEC3"
    },
    {
      "bufferView": 1,
      "componentType": 5126,
      "count": 3256,
      "type": "VEC3"
    },
    {
      "bufferView": 2,
      "componentType": 5126,
      "count": 3256,
      "type": "VEC2"
    },
    {
      "bufferView": 3,
      "componentType": 5123,
      "count": 18144,
      "type": "SCALAR"
    }
  ],
  "bufferViews": [
    {
      "buffer": 0,
      "byteLength": 39072,
      "byteOffset": 0
    },
    {
      "buffer": 0,
      "byteLength": 39072,
      "byteOffset": 39072
    },
    {
      "buffer": 0,
      "byteLength": 26048,
      "byteOffset": 78144
    },
    {
      "buffer": 0,
      "byteLength": 36288,
      "byteOffset": 104192
    }
  ],
  "buffers": [
    {
      "uri": "Uranus_data.bin",
      "byteLength": 140480
    }
  ]
}